<?xml version="1.0" standalone="no"?>
<!DOCTYPE svg PUBLIC "-//W3C//DTD SVG 20010904//EN"
 "http://www.w3.org/TR/2001/REC-SVG-20010904/DTD/svg10.dtd">
<svg version="1.0" xmlns="http://www.w3.org/2000/svg"
 width="2048.000000pt" height="2732.000000pt" viewBox="0 0 2048.000000 2732.000000"
 preserveAspectRatio="xMidYMid meet">
<metadata>
Created by potrace 1.16, written by Peter Selinger 2001-2019
</metadata>
<g transform="translate(0.000000,2732.000000) scale(0.100000,-0.100000)"
fill="#000000" stroke="none">
<path d="M7847 18598 c-53 -57 -67 -84 -67 -127 0 -28 -63 -229 -118 -376 -42
-114 -119 -482 -138 -659 -8 -83 -17 -153 -19 -157 -11 -16 -45 -327 -45 -404
0 -47 -2 -85 -5 -85 -2 0 -41 25 -86 56 -119 81 -365 196 -494 230 -58 16
-340 19 -425 5 -300 -50 -409 -83 -528 -160 -123 -80 -369 -387 -421 -526 -33
-88 -44 -186 -38 -327 7 -148 21 -206 89 -382 27 -71 62 -180 77 -241 39 -158
60 -196 160 -293 73 -73 100 -91 198 -138 151 -73 270 -114 330 -114 32 0 76
-12 133 -36 145 -61 215 -84 322 -105 78 -16 135 -36 238 -84 74 -35 196 -86
270 -113 172 -63 495 -172 509 -172 20 0 216 -81 239 -98 l24 -19 -104 -65
c-56 -36 -178 -109 -271 -162 -92 -53 -198 -116 -235 -140 -37 -24 -157 -94
-267 -156 -259 -147 -342 -198 -445 -280 -47 -37 -114 -86 -150 -110 -36 -24
-116 -86 -179 -139 -168 -141 -250 -208 -303 -244 -78 -53 -95 -124 -40 -167
28 -22 82 -26 115 -8 40 21 168 121 296 230 69 60 160 132 201 160 41 28 113
82 160 118 103 82 186 133 445 280 110 62 241 139 290 170 50 31 160 97 245
145 85 49 200 118 255 153 109 71 239 142 258 142 15 0 80 66 96 97 31 60 -9
124 -76 122 -21 -1 -49 -4 -63 -8 -29 -9 -107 17 -185 60 -64 36 -130 61 -269
104 -304 95 -615 209 -747 275 -106 54 -166 74 -274 95 -123 23 -320 100 -394
153 -47 34 -97 47 -221 58 -109 9 -169 37 -258 119 -77 72 -91 98 -127 245
-15 58 -46 155 -70 215 -75 192 -80 213 -80 385 0 134 3 162 21 205 50 124
261 385 356 442 83 50 176 80 335 108 129 23 170 26 313 23 l165 -3 140 -60
c261 -113 408 -222 473 -351 33 -66 81 -114 113 -114 65 0 103 58 88 135 -5
22 -8 132 -9 245 0 194 15 375 40 498 6 26 16 108 24 182 16 150 75 447 111
555 44 132 77 220 85 229 10 10 37 -41 96 -182 24 -57 59 -129 78 -160 44 -73
52 -93 86 -223 21 -76 53 -154 118 -285 103 -207 102 -204 141 -389 29 -133
128 -411 177 -494 32 -54 99 -67 139 -26 42 41 34 90 -39 272 -49 121 -73 198
-100 322 -30 140 -44 181 -97 294 -34 73 -77 159 -95 192 -18 33 -47 112 -64
175 -35 127 -54 175 -103 258 -19 32 -56 108 -82 171 -27 62 -73 154 -103 205
-57 94 -61 110 -47 198 7 44 5 49 -23 78 -48 48 -84 42 -145 -22z"/>
</g>
</svg>
