<?xml version="1.0" standalone="no"?>
<!DOCTYPE svg PUBLIC "-//W3C//DTD SVG 20010904//EN"
 "http://www.w3.org/TR/2001/REC-SVG-20010904/DTD/svg10.dtd">
<svg version="1.0" xmlns="http://www.w3.org/2000/svg"
 width="2048.000000pt" height="2732.000000pt" viewBox="0 0 2048.000000 2732.000000"
 preserveAspectRatio="xMidYMid meet">
<metadata>
Created by potrace 1.16, written by Peter Selinger 2001-2019
</metadata>
<g transform="translate(0.000000,2732.000000) scale(0.100000,-0.100000)"
fill="#000000" stroke="none">
<path d="M13250 20512 c-27 -18 -126 -109 -219 -203 -31 -30 -88 -102 -128
-160 -40 -57 -124 -169 -188 -249 -230 -288 -363 -502 -477 -767 -98 -230
-319 -822 -341 -918 -9 -38 -33 -143 -52 -233 -20 -89 -65 -262 -100 -385
-147 -513 -151 -536 -180 -1072 -9 -159 -19 -324 -23 -365 l-7 -75 -24 65
c-27 76 -188 414 -244 515 -22 39 -72 111 -111 160 -40 50 -102 131 -140 182
-97 133 -270 284 -398 349 -55 28 -160 34 -194 10 -17 -12 -31 -12 -104 6 -78
19 -106 20 -345 15 -360 -8 -608 -45 -810 -119 -119 -44 -298 -140 -405 -218
-52 -38 -158 -113 -235 -167 -359 -252 -605 -466 -737 -640 -80 -105 -365
-547 -406 -628 -53 -105 -71 -162 -82 -254 -5 -42 -14 -121 -20 -176 -6 -55
-29 -190 -50 -300 -71 -366 -75 -405 -75 -690 1 -285 6 -324 66 -474 59 -149
157 -275 264 -343 62 -38 171 -79 268 -99 49 -10 94 -22 101 -28 7 -6 16 -8
19 -5 3 3 48 -5 99 -19 51 -14 112 -28 134 -31 23 -3 126 -33 228 -66 103 -33
251 -78 329 -100 78 -21 162 -46 187 -55 25 -9 164 -47 310 -85 585 -152 723
-191 849 -240 186 -71 287 -103 516 -161 110 -28 288 -80 395 -114 107 -35
265 -80 350 -100 178 -41 224 -55 335 -101 247 -103 492 -180 775 -243 62 -14
112 -33 145 -53 l50 -32 -193 -93 c-106 -51 -252 -128 -325 -171 -196 -116
-496 -274 -632 -332 -66 -29 -172 -81 -235 -116 -64 -35 -165 -84 -225 -108
-193 -78 -454 -209 -695 -351 -129 -76 -309 -181 -400 -234 -91 -53 -190 -113
-220 -132 -224 -144 -861 -482 -1073 -569 -58 -24 -81 -39 -92 -61 -20 -37
-20 -36 20 -43 23 -5 63 1 117 15 148 40 789 374 1143 595 44 28 116 70 159
93 43 24 145 83 225 131 391 234 616 351 896 465 50 20 128 59 175 86 47 27
159 83 250 125 182 85 449 230 650 354 71 44 224 127 338 183 l207 104 100
-48 c55 -27 137 -61 183 -76 77 -25 85 -26 110 -12 61 34 35 73 -77 120 -71
29 -171 77 -180 85 -2 2 4 13 14 24 15 17 16 24 7 45 -14 30 -39 32 -91 6
l-38 -20 -74 46 c-99 61 -113 67 -264 98 -71 15 -168 37 -215 50 -87 24 -399
134 -569 200 -51 20 -170 54 -265 76 -94 22 -259 68 -366 103 -107 36 -285 87
-395 115 -202 51 -340 95 -540 171 -98 38 -540 158 -850 231 -66 15 -176 44
-245 64 -69 20 -190 54 -270 75 -80 21 -203 57 -274 79 -71 22 -199 57 -285
77 -357 82 -430 103 -501 139 -97 52 -177 139 -235 258 -71 146 -86 220 -92
447 -6 222 6 350 62 640 49 253 63 338 79 495 16 154 24 183 84 300 70 141
393 614 482 709 146 154 337 310 620 507 91 64 203 143 250 177 308 223 652
308 1203 300 219 -4 249 -6 311 -27 38 -12 86 -34 107 -48 33 -22 45 -24 84
-19 l45 7 -16 32 c-9 18 -27 47 -41 65 -22 29 -22 32 -5 32 65 0 309 -206 403
-341 35 -51 99 -137 142 -192 43 -55 93 -127 112 -161 54 -98 213 -439 246
-529 45 -124 116 -265 140 -278 29 -15 64 -4 77 26 8 16 12 83 12 179 0 84 4
222 10 307 5 85 14 249 20 364 18 341 29 399 168 890 44 154 96 359 117 455
41 193 56 239 208 640 117 310 220 552 274 649 65 116 248 382 361 523 61 75
139 179 173 230 64 94 160 197 256 276 49 40 53 41 62 23 26 -48 43 -154 61
-386 11 -137 26 -306 34 -375 8 -69 18 -159 21 -200 8 -99 32 -251 51 -325 17
-68 128 -445 244 -830 44 -144 97 -335 120 -427 40 -162 61 -232 135 -433 21
-56 52 -176 71 -273 43 -220 57 -272 105 -401 22 -58 56 -180 75 -271 19 -91
45 -205 59 -255 71 -256 95 -363 115 -498 29 -199 62 -323 118 -441 l47 -99 7
89 c8 90 4 131 -52 534 -12 85 -39 205 -73 325 -30 105 -71 269 -92 365 -22
104 -55 222 -80 290 -56 148 -69 195 -100 365 -32 170 -43 211 -110 391 -29
77 -74 223 -100 325 -26 101 -82 299 -125 439 -137 447 -228 753 -249 834 -30
115 -77 499 -106 876 -26 321 -58 445 -132 510 -39 34 -58 37 -93 12z"/>
</g>
</svg>
