<?xml version="1.0" standalone="no"?>
<!DOCTYPE svg PUBLIC "-//W3C//DTD SVG 20010904//EN"
 "http://www.w3.org/TR/2001/REC-SVG-20010904/DTD/svg10.dtd">
<svg version="1.0" xmlns="http://www.w3.org/2000/svg"
 width="2048.000000pt" height="2732.000000pt" viewBox="0 0 2048.000000 2732.000000"
 preserveAspectRatio="xMidYMid meet">
<metadata>
Created by potrace 1.16, written by Peter Selinger 2001-2019
</metadata>
<g transform="translate(0.000000,2732.000000) scale(0.100000,-0.100000)"
fill="#000000" stroke="none">
<path d="M14562 19710 c-13 -6 -37 -21 -55 -34 -18 -13 -67 -40 -109 -59 -95
-44 -143 -76 -288 -197 -63 -52 -152 -121 -197 -153 -111 -78 -241 -185 -394
-322 -167 -151 -312 -331 -658 -819 -122 -172 -176 -260 -258 -419 -58 -111
-160 -294 -228 -407 -124 -208 -237 -406 -267 -470 -45 -96 -70 -164 -190
-525 -72 -214 -133 -396 -138 -404 -4 -7 -12 26 -19 79 -15 116 -72 418 -101
530 -12 47 -38 121 -57 165 -20 44 -58 136 -85 205 -55 139 -65 158 -152 280
-70 99 -159 196 -198 216 -43 22 -125 37 -144 26 -13 -7 -35 0 -88 29 -109 59
-466 150 -716 183 -386 52 -594 25 -990 -129 -63 -24 -178 -68 -254 -96 -192
-70 -325 -128 -498 -215 -168 -85 -264 -151 -410 -281 -57 -50 -168 -149 -248
-220 -220 -196 -301 -303 -358 -478 -28 -83 -74 -188 -185 -415 -124 -255
-178 -396 -232 -596 -56 -212 -70 -321 -55 -452 32 -291 142 -454 393 -583 53
-27 97 -54 97 -60 0 -5 6 -9 12 -7 7 1 51 -20 98 -47 47 -28 99 -55 115 -61
33 -12 137 -74 228 -136 161 -109 748 -456 1187 -701 69 -38 166 -98 215 -133
240 -169 364 -249 520 -336 224 -126 247 -139 405 -244 75 -49 200 -123 278
-164 78 -41 177 -100 219 -131 368 -269 523 -368 766 -490 62 -31 157 -112
146 -123 -5 -5 -222 -48 -309 -61 -25 -4 -126 -30 -225 -57 -253 -69 -534
-133 -717 -163 -86 -14 -210 -38 -275 -54 -65 -16 -161 -34 -213 -41 -281 -35
-489 -79 -855 -182 -99 -28 -254 -70 -344 -94 -90 -24 -223 -62 -295 -84 -334
-100 -896 -230 -1144 -264 -101 -14 -142 -32 -142 -61 0 -23 54 -36 150 -36
174 0 676 109 1170 253 58 17 177 50 265 73 88 23 293 79 455 123 281 77 518
128 715 152 113 14 236 38 285 55 21 7 121 28 222 45 195 33 538 116 756 181
73 22 187 51 255 64 67 13 164 33 214 44 51 12 98 21 105 21 7 0 49 -32 93
-71 160 -140 258 -188 295 -144 25 30 5 55 -154 180 -41 33 -75 65 -76 70 0 6
9 16 20 23 24 14 26 45 5 62 -10 9 -31 10 -67 6 l-52 -7 -70 74 c-65 67 -85
81 -236 158 -163 82 -451 267 -615 394 -95 73 -195 135 -331 203 -54 27 -162
91 -239 142 -166 110 -191 126 -400 243 -188 105 -286 168 -450 287 -66 48
-199 131 -295 185 -96 54 -213 120 -260 147 -46 28 -132 75 -190 106 -58 30
-181 101 -275 157 -93 56 -208 123 -255 150 -47 26 -150 88 -229 138 -126 78
-265 155 -544 302 -168 88 -265 211 -308 391 -18 76 -20 109 -16 229 4 127 9
156 50 305 60 216 93 298 244 610 107 221 130 273 179 408 61 170 118 237 433
516 312 276 345 299 586 416 214 104 294 135 837 331 340 122 668 115 1187
-27 227 -61 295 -92 378 -168 42 -38 65 -51 99 -56 l44 -7 -6 36 c-4 20 -15
53 -26 74 -21 41 -19 43 21 22 35 -18 90 -83 168 -200 77 -115 87 -136 140
-280 24 -65 60 -154 78 -197 19 -43 43 -113 54 -156 29 -114 89 -452 101 -567
13 -124 37 -258 52 -291 21 -46 88 -44 107 4 6 15 27 85 46 156 33 122 63 216
222 696 80 243 138 363 345 710 91 151 204 352 253 445 103 199 114 217 215
355 42 58 121 168 175 245 95 135 155 214 311 411 115 144 359 364 584 526 58
42 141 106 185 143 146 122 190 153 305 209 86 42 116 53 122 43 17 -24 0
-196 -45 -437 -25 -135 -48 -263 -51 -285 -3 -22 -20 -125 -38 -230 -32 -186
-33 -196 -32 -480 1 -159 5 -366 9 -460 10 -239 28 -1086 27 -1290 0 -409 0
-589 0 -715 3 -444 -4 -714 -23 -882 -28 -259 -22 -450 17 -568 3 -7 18 24 35
70 21 60 35 132 49 245 11 88 24 183 30 210 18 81 32 956 18 1108 -9 100 -8
175 2 347 12 195 11 239 -4 402 -11 117 -16 267 -15 418 0 129 -7 449 -16 710
-19 516 -16 649 15 840 12 69 30 184 40 255 11 72 36 216 55 320 60 315 57
484 -10 551 -25 25 -45 29 -83 14z"/>
</g>
</svg>
