<?xml version="1.0" standalone="no"?>
<!DOCTYPE svg PUBLIC "-//W3C//DTD SVG 20010904//EN"
 "http://www.w3.org/TR/2001/REC-SVG-20010904/DTD/svg10.dtd">
<svg version="1.0" xmlns="http://www.w3.org/2000/svg"
 width="400.000000pt" height="550.000000pt" viewBox="0 0 400.000000 550.000000"
 preserveAspectRatio="xMidYMid meet">
<metadata>
Created by potrace 1.16, written by Peter Selinger 2001-2019
</metadata>
<g transform="translate(0.000000,550.000000) scale(0.100000,-0.100000)"
fill="#000000" stroke="none">
<path d="M1664 3352 c-23 -14 -113 -163 -142 -235 -43 -102 -81 -238 -95 -333
l-11 -82 -36 28 c-59 47 -157 84 -225 84 -173 1 -289 -114 -314 -309 -16 -119
4 -180 87 -275 50 -58 14 -38 576 -309 93 -45 167 -83 165 -85 -11 -10 -193
-85 -365 -151 -200 -77 -374 -158 -374 -175 0 -14 11 -13 56 5 43 18 40 16
179 78 55 24 134 56 175 71 282 102 400 150 399 163 0 7 -301 159 -579 294
-58 27 -126 64 -152 80 -54 35 -124 131 -134 186 -21 109 36 281 110 335 44
32 122 58 174 58 52 0 173 -55 220 -101 23 -22 42 -44 42 -49 0 -6 6 -10 14
-10 10 0 15 24 20 86 14 172 91 410 174 534 25 39 50 70 54 70 21 0 78 -162
112 -315 13 -62 32 -215 39 -315 1 -25 7 -36 21 -38 18 -4 19 2 13 129 -13
261 -71 472 -155 562 -28 29 -31 31 -48 19z"/>
</g>
</svg>
