<?xml version="1.0" standalone="no"?>
<!DOCTYPE svg PUBLIC "-//W3C//DTD SVG 20010904//EN"
 "http://www.w3.org/TR/2001/REC-SVG-20010904/DTD/svg10.dtd">
<svg version="1.0" xmlns="http://www.w3.org/2000/svg"
 width="400.000000pt" height="550.000000pt" viewBox="0 0 400.000000 550.000000"
 preserveAspectRatio="xMidYMid meet">
<metadata>
Created by potrace 1.16, written by Peter Selinger 2001-2019
</metadata>
<g transform="translate(0.000000,550.000000) scale(0.100000,-0.100000)"
fill="#000000" stroke="none">
<path d="M2552 4733 c-82 -122 -115 -183 -157 -293 -19 -52 -40 -104 -45 -115
-30 -66 -100 -381 -100 -455 0 -37 -9 -38 -43 -2 -25 26 -113 75 -212 118
-130 57 -358 8 -462 -98 -51 -52 -121 -176 -134 -238 -48 -225 -30 -330 81
-477 88 -117 71 -107 650 -380 272 -129 501 -246 494 -252 -5 -4 -49 -25 -99
-46 -49 -21 -112 -48 -140 -61 -27 -13 -79 -33 -115 -45 -36 -12 -69 -25 -75
-30 -5 -5 -16 -9 -25 -9 -8 0 -28 -7 -44 -15 -15 -8 -33 -15 -40 -15 -6 0 -23
-6 -37 -14 -15 -7 -53 -23 -85 -34 -68 -24 -121 -45 -184 -74 -25 -11 -69 -32
-99 -45 -63 -29 -153 -83 -163 -97 -18 -26 28 -12 182 55 227 98 435 183 522
212 116 39 441 163 476 181 36 19 41 35 13 43 -11 3 -66 29 -123 59 -136 71
-597 299 -723 358 -195 91 -280 148 -338 224 -108 141 -124 212 -91 391 17 91
72 211 122 265 58 62 158 104 269 114 131 10 341 -92 409 -199 42 -67 49 -55
67 114 15 138 24 187 70 353 15 54 75 215 110 294 22 52 146 240 158 240 11 0
45 -50 54 -80 4 -14 11 -29 15 -35 7 -11 27 -69 54 -155 21 -69 67 -282 73
-335 2 -22 11 -92 19 -155 8 -63 14 -138 14 -166 0 -64 7 -84 30 -84 26 0 29
36 19 215 -10 163 -38 370 -63 460 -40 144 -114 306 -166 363 -48 53 -69 45
-138 -55z"/>
</g>
</svg>
