<?xml version="1.0" standalone="no"?>
<!DOCTYPE svg PUBLIC "-//W3C//DTD SVG 20010904//EN"
 "http://www.w3.org/TR/2001/REC-SVG-20010904/DTD/svg10.dtd">
<svg version="1.0" xmlns="http://www.w3.org/2000/svg"
 width="400.000000pt" height="550.000000pt" viewBox="0 0 400.000000 550.000000"
 preserveAspectRatio="xMidYMid meet">
<metadata>
Created by potrace 1.16, written by Peter Selinger 2001-2019
</metadata>
<g transform="translate(0.000000,550.000000) scale(0.100000,-0.100000)"
fill="#000000" stroke="none">
<path d="M1930 3894 c-29 -66 -48 -139 -60 -224 -13 -92 -14 -341 -1 -393 10
-43 15 -43 -69 -12 -27 11 -78 18 -130 19 -74 1 -91 -2 -135 -26 -97 -51 -137
-102 -161 -209 -15 -64 -15 -84 -5 -149 17 -101 43 -152 106 -207 64 -54 108
-75 195 -92 97 -19 195 -37 290 -55 306 -57 366 -69 373 -75 9 -9 -125 -117
-293 -236 -69 -49 -127 -92 -130 -95 -3 -3 -34 -29 -70 -57 -77 -60 -136 -120
-128 -129 6 -5 93 58 188 135 108 88 152 122 191 146 104 65 319 228 319 241
0 9 -3 13 -7 11 -8 -5 -33 0 -223 42 -52 11 -189 39 -305 61 -243 45 -293 61
-358 109 -83 62 -117 134 -119 254 -2 121 38 204 124 258 51 33 56 34 153 33
105 0 158 -17 212 -67 13 -11 26 -18 29 -14 4 3 -1 50 -11 104 -33 180 -10
454 50 597 l16 38 30 -28 c55 -53 143 -205 222 -384 9 -19 26 -66 39 -105 13
-38 27 -76 31 -82 13 -21 27 -15 27 10 0 31 -74 243 -115 332 -64 137 -194
295 -243 295 -7 0 -21 -20 -32 -46z"/>
</g>
</svg>
