<?xml version="1.0" standalone="no"?>
<!DOCTYPE svg PUBLIC "-//W3C//DTD SVG 20010904//EN"
 "http://www.w3.org/TR/2001/REC-SVG-20010904/DTD/svg10.dtd">
<svg version="1.0" xmlns="http://www.w3.org/2000/svg"
 width="400.000000pt" height="550.000000pt" viewBox="0 0 400.000000 550.000000"
 preserveAspectRatio="xMidYMid meet">
<metadata>
Created by potrace 1.16, written by Peter Selinger 2001-2019
</metadata>
<g transform="translate(0.000000,550.000000) scale(0.100000,-0.100000)"
fill="#000000" stroke="none">
<path d="M1692 3913 c-4 -10 -7 -83 -7 -163 0 -125 4 -161 29 -260 15 -63 42
-148 58 -188 17 -40 29 -75 26 -77 -2 -2 -20 0 -41 5 -49 11 -167 -4 -220 -29
-47 -21 -97 -67 -135 -124 -34 -51 -43 -186 -18 -260 44 -130 100 -194 206
-235 67 -27 108 -30 230 -21 52 4 190 14 305 23 116 9 234 18 262 20 29 3 55
1 58 -4 2 -4 -10 -27 -28 -51 -18 -24 -40 -56 -49 -70 -9 -14 -35 -48 -58 -75
-52 -61 -65 -76 -115 -139 -22 -27 -43 -52 -46 -55 -13 -10 -137 -187 -153
-217 -9 -18 -16 -38 -16 -45 1 -18 10 -6 177 217 53 72 113 148 134 170 20 22
67 78 105 125 37 47 71 87 74 90 14 12 50 64 50 72 0 11 -187 4 -490 -19 -308
-24 -366 -22 -443 15 -81 39 -113 71 -150 151 -35 76 -46 172 -27 240 16 59
96 144 159 168 63 25 203 25 250 0 19 -9 38 -14 42 -10 3 5 -11 45 -32 89 -42
88 -90 259 -109 391 -12 83 -6 228 10 238 18 11 144 -95 255 -216 46 -51 140
-175 179 -237 26 -42 52 -52 50 -19 -3 32 -159 249 -237 330 -94 97 -147 139
-208 167 -54 24 -68 25 -77 3z"/>
</g>
</svg>
