<?xml version="1.0" standalone="no"?>
<!DOCTYPE svg PUBLIC "-//W3C//DTD SVG 20010904//EN"
 "http://www.w3.org/TR/2001/REC-SVG-20010904/DTD/svg10.dtd">
<svg version="1.0" xmlns="http://www.w3.org/2000/svg"
 width="400.000000pt" height="550.000000pt" viewBox="0 0 400.000000 550.000000"
 preserveAspectRatio="xMidYMid meet">
<metadata>
Created by potrace 1.16, written by Peter Selinger 2001-2019
</metadata>
<g transform="translate(0.000000,550.000000) scale(0.100000,-0.100000)"
fill="#000000" stroke="none">
<path d="M2516 3560 c-44 -22 -107 -61 -140 -86 -81 -62 -260 -243 -281 -285
l-18 -33 -23 51 c-29 66 -83 138 -132 174 -49 36 -152 63 -212 54 -109 -16
-236 -123 -287 -243 -23 -53 -20 -184 5 -242 18 -41 101 -170 221 -340 25 -36
83 -121 128 -189 75 -112 96 -150 76 -138 -5 3 -37 8 -73 11 -68 7 -204 27
-350 51 -142 24 -151 25 -261 31 -136 9 -154 -8 -26 -24 51 -7 101 -14 112
-16 11 -2 56 -7 100 -11 44 -4 123 -15 175 -25 162 -32 361 -62 375 -56 11 4
2 24 -34 78 -27 40 -91 136 -142 213 -51 77 -125 187 -164 245 -113 165 -128
201 -127 317 0 49 6 73 25 106 38 64 102 132 155 164 41 24 57 28 127 28 93 0
146 -22 202 -83 44 -49 93 -147 93 -188 0 -18 4 -35 9 -39 5 -3 34 30 65 72
57 82 180 208 279 286 77 62 206 126 216 108 16 -26 -4 -141 -51 -291 -33
-104 -35 -110 -103 -254 -33 -72 -43 -102 -35 -110 17 -17 41 22 109 169 88
194 121 313 121 440 0 110 -13 115 -134 55z"/>
</g>
</svg>
