<?xml version="1.0" standalone="no"?>
<!DOCTYPE svg PUBLIC "-//W3C//DTD SVG 20010904//EN"
 "http://www.w3.org/TR/2001/REC-SVG-20010904/DTD/svg10.dtd">
<svg version="1.0" xmlns="http://www.w3.org/2000/svg"
 width="400.000000pt" height="550.000000pt" viewBox="0 0 400.000000 550.000000"
 preserveAspectRatio="xMidYMid meet">
<metadata>
Created by potrace 1.16, written by Peter Selinger 2001-2019
</metadata>
<g transform="translate(0.000000,550.000000) scale(0.100000,-0.100000)"
fill="#000000" stroke="none">
<path d="M1741 2901 c-34 -53 -76 -167 -86 -234 l-7 -43 -60 30 c-56 28 -62
29 -106 17 -26 -7 -57 -22 -69 -33 -34 -32 -56 -100 -51 -156 8 -85 35 -108
233 -203 96 -46 175 -87 175 -91 0 -3 -60 -30 -132 -58 -134 -53 -228 -96
-228 -105 0 -3 15 1 33 8 17 8 61 26 95 41 35 15 107 43 160 62 53 19 100 38
104 42 5 5 -74 48 -173 97 -100 49 -191 99 -204 111 -59 54 -66 122 -23 207
41 82 162 88 232 12 l25 -27 5 39 c19 125 81 290 114 301 24 7 63 -125 77
-262 4 -37 10 -64 14 -60 13 15 -6 187 -28 248 -22 64 -46 106 -60 106 -5 0
-23 -22 -40 -49z"/>
</g>
</svg>
