<?xml version="1.0" standalone="no"?>
<!DOCTYPE svg PUBLIC "-//W3C//DTD SVG 20010904//EN"
 "http://www.w3.org/TR/2001/REC-SVG-20010904/DTD/svg10.dtd">
<svg version="1.0" xmlns="http://www.w3.org/2000/svg"
 width="400.000000pt" height="550.000000pt" viewBox="0 0 400.000000 550.000000"
 preserveAspectRatio="xMidYMid meet">
<metadata>
Created by potrace 1.16, written by Peter Selinger 2001-2019
</metadata>
<g transform="translate(0.000000,550.000000) scale(0.100000,-0.100000)"
fill="#000000" stroke="none">
<path d="M1972 3400 c-68 -79 -142 -260 -165 -405 l-11 -74 -26 24 c-33 31
-121 65 -169 65 -136 0 -230 -104 -234 -258 -1 -58 3 -86 17 -114 38 -78 81
-107 345 -232 138 -65 253 -122 256 -126 4 -7 -119 -61 -280 -120 -127 -47
-275 -118 -275 -131 0 -5 15 -3 33 4 17 8 86 37 152 65 66 28 183 74 261 102
142 52 172 66 164 73 -3 2 -125 63 -272 136 -147 73 -281 144 -298 158 -17 14
-42 45 -56 70 -24 40 -26 51 -22 121 4 62 11 87 34 127 36 61 103 99 173 99
58 -1 154 -45 183 -85 12 -16 25 -29 29 -29 4 0 10 30 14 67 9 87 39 200 76
290 31 73 82 153 98 153 29 0 84 -208 103 -385 15 -141 34 -150 31 -15 -4 137
-28 252 -73 346 -43 89 -61 104 -88 74z"/>
</g>
</svg>
