<?xml version="1.0" standalone="no"?>
<!DOCTYPE svg PUBLIC "-//W3C//DTD SVG 20010904//EN"
 "http://www.w3.org/TR/2001/REC-SVG-20010904/DTD/svg10.dtd">
<svg version="1.0" xmlns="http://www.w3.org/2000/svg"
 width="400.000000pt" height="550.000000pt" viewBox="0 0 400.000000 550.000000"
 preserveAspectRatio="xMidYMid meet">
<metadata>
Created by potrace 1.16, written by Peter Selinger 2001-2019
</metadata>
<g transform="translate(0.000000,550.000000) scale(0.100000,-0.100000)"
fill="#000000" stroke="none">
<path d="M2338 3699 c-73 -66 -167 -184 -219 -274 -40 -70 -89 -174 -89 -189
0 -24 -22 -30 -33 -10 -18 35 -108 112 -159 138 -67 34 -186 37 -251 7 -42
-20 -119 -93 -150 -142 -29 -49 -57 -143 -57 -196 0 -59 31 -151 68 -203 14
-19 129 -124 256 -233 127 -108 255 -219 284 -245 l54 -48 -114 -17 c-62 -9
-196 -26 -298 -37 -254 -27 -383 -51 -396 -71 -7 -12 12 -11 126 5 172 25 343
45 475 57 160 14 255 26 263 34 3 3 -12 20 -33 38 -22 17 -58 49 -80 70 -22
22 -69 64 -104 95 -35 32 -69 62 -75 67 -6 6 -75 65 -153 132 -169 147 -192
174 -222 258 -30 85 -26 149 16 236 104 215 305 253 474 88 27 -27 59 -69 70
-95 12 -25 24 -42 29 -38 4 5 20 44 35 87 61 170 203 379 328 481 l47 38 12
-28 c20 -48 16 -357 -6 -494 -23 -135 -25 -169 -11 -171 22 -2 56 152 76 341
19 175 -19 390 -68 390 -10 0 -53 -32 -95 -71z"/>
</g>
</svg>
