<?xml version="1.0" standalone="no"?>
<!DOCTYPE svg PUBLIC "-//W3C//DTD SVG 20010904//EN"
 "http://www.w3.org/TR/2001/REC-SVG-20010904/DTD/svg10.dtd">
<svg version="1.0" xmlns="http://www.w3.org/2000/svg"
 width="400.000000pt" height="550.000000pt" viewBox="0 0 400.000000 550.000000"
 preserveAspectRatio="xMidYMid meet">
<metadata>
Created by potrace 1.16, written by Peter Selinger 2001-2019
</metadata>
<g transform="translate(0.000000,550.000000) scale(0.100000,-0.100000)"
fill="#000000" stroke="none">
<path d="M2413 4353 c-20 -7 -117 -153 -156 -233 -71 -148 -157 -452 -157
-555 l0 -37 -37 33 c-54 47 -193 108 -262 116 -108 11 -245 -39 -309 -112 -77
-89 -122 -222 -122 -364 0 -130 111 -288 251 -358 35 -17 114 -55 174 -84 399
-187 603 -288 610 -300 4 -5 -11 -16 -32 -25 -21 -9 -77 -33 -125 -55 -47 -21
-110 -47 -140 -58 -29 -10 -84 -31 -123 -46 -38 -14 -95 -35 -125 -46 -30 -10
-64 -23 -75 -29 -11 -5 -58 -26 -105 -47 -114 -51 -190 -95 -190 -110 0 -9 14
-7 48 6 72 30 202 85 252 109 74 34 169 71 285 112 249 87 427 159 423 171 -3
9 -540 282 -698 355 -112 51 -222 113 -255 142 -36 32 -85 101 -110 154 -61
130 -3 371 111 465 57 46 182 87 242 79 55 -7 180 -59 231 -97 23 -16 51 -45
63 -64 13 -19 29 -35 35 -35 15 0 18 14 32 155 16 161 95 418 166 545 50 88
99 159 111 159 18 1 70 -115 98 -214 45 -165 66 -279 84 -450 15 -152 19 -170
36 -173 19 -4 19 2 13 166 -11 272 -65 496 -156 646 -37 60 -67 87 -88 79z"/>
</g>
</svg>
